<mxfile host="app.diagrams.net" modified="2022-09-09T07:43:21.183Z" agent="5.0 (Macintosh; Intel Mac OS X 10_15_7) AppleWebKit/605.1.15 (KHTML, like Gecko) Version/15.3 Safari/605.1.15" etag="QEdtWtwzneLT7NJoEi_c" version="20.3.0" type="github">
  <diagram id="prtHgNgQTEPvFCAcTncT" name="Page-1">
    <mxGraphModel dx="788" dy="478" grid="1" gridSize="10" guides="1" tooltips="1" connect="1" arrows="1" fold="1" page="1" pageScale="1" pageWidth="827" pageHeight="1169" math="0" shadow="0">
      <root>
        <mxCell id="0" />
        <mxCell id="1" parent="0" />
        <mxCell id="dNxyNK7c78bLwvsdeMH5-19" value="Pool" style="swimlane;html=1;childLayout=stackLayout;resizeParent=1;resizeParentMax=0;horizontal=0;startSize=20;horizontalStack=0;dashed=1;" parent="1" vertex="1">
          <mxGeometry x="120" y="120" width="450" height="370" as="geometry">
            <mxRectangle x="120" y="120" width="40" height="60" as="alternateBounds" />
          </mxGeometry>
        </mxCell>
        <mxCell id="dNxyNK7c78bLwvsdeMH5-20" value="Web等平台" style="swimlane;html=1;startSize=20;horizontal=0;dashed=1;" parent="dNxyNK7c78bLwvsdeMH5-19" vertex="1">
          <mxGeometry x="20" width="430" height="90" as="geometry" />
        </mxCell>
        <mxCell id="hqmZHZQP9ogtLiP07Q59-2" value="PC Web" style="rounded=0;whiteSpace=wrap;html=1;" vertex="1" parent="dNxyNK7c78bLwvsdeMH5-20">
          <mxGeometry x="40" y="20" width="110" height="40" as="geometry" />
        </mxCell>
        <mxCell id="hqmZHZQP9ogtLiP07Q59-3" value="小程序" style="rounded=0;whiteSpace=wrap;html=1;" vertex="1" parent="dNxyNK7c78bLwvsdeMH5-20">
          <mxGeometry x="290" y="20" width="120" height="40" as="geometry" />
        </mxCell>
        <mxCell id="hqmZHZQP9ogtLiP07Q59-4" value="H5 Web" style="rounded=0;whiteSpace=wrap;html=1;" vertex="1" parent="dNxyNK7c78bLwvsdeMH5-20">
          <mxGeometry x="163.5" y="20" width="110" height="40" as="geometry" />
        </mxCell>
        <mxCell id="hqmZHZQP9ogtLiP07Q59-18" value="" style="shape=flexArrow;endArrow=classic;startArrow=classic;html=1;rounded=0;endWidth=19;endSize=2.76;startWidth=19;startSize=2.76;" edge="1" parent="dNxyNK7c78bLwvsdeMH5-20">
          <mxGeometry width="100" height="100" relative="1" as="geometry">
            <mxPoint x="220" y="100" as="sourcePoint" />
            <mxPoint x="218" y="60" as="targetPoint" />
          </mxGeometry>
        </mxCell>
        <mxCell id="hqmZHZQP9ogtLiP07Q59-20" value="语法转换" style="edgeLabel;html=1;align=center;verticalAlign=middle;resizable=0;points=[];" vertex="1" connectable="0" parent="hqmZHZQP9ogtLiP07Q59-18">
          <mxGeometry x="0.1134" y="1" relative="1" as="geometry">
            <mxPoint as="offset" />
          </mxGeometry>
        </mxCell>
        <mxCell id="dNxyNK7c78bLwvsdeMH5-21" value="Lane 2" style="swimlane;html=1;startSize=20;horizontal=0;dashed=1;" parent="dNxyNK7c78bLwvsdeMH5-19" vertex="1">
          <mxGeometry x="20" y="90" width="430" height="200" as="geometry" />
        </mxCell>
        <mxCell id="hqmZHZQP9ogtLiP07Q59-6" value="Weex" style="rounded=0;whiteSpace=wrap;html=1;" vertex="1" parent="dNxyNK7c78bLwvsdeMH5-21">
          <mxGeometry x="40" y="25" width="170" height="40" as="geometry" />
        </mxCell>
        <mxCell id="hqmZHZQP9ogtLiP07Q59-7" value="hybrid H5" style="rounded=0;whiteSpace=wrap;html=1;" vertex="1" parent="dNxyNK7c78bLwvsdeMH5-21">
          <mxGeometry x="240" y="25" width="170" height="40" as="geometry" />
        </mxCell>
        <mxCell id="hqmZHZQP9ogtLiP07Q59-8" value="Weex SDK + Weex plugins" style="rounded=0;whiteSpace=wrap;html=1;" vertex="1" parent="dNxyNK7c78bLwvsdeMH5-21">
          <mxGeometry x="40" y="81" width="370" height="40" as="geometry" />
        </mxCell>
        <mxCell id="hqmZHZQP9ogtLiP07Q59-9" value="Native" style="rounded=0;whiteSpace=wrap;html=1;" vertex="1" parent="dNxyNK7c78bLwvsdeMH5-21">
          <mxGeometry x="40" y="135" width="370" height="40" as="geometry" />
        </mxCell>
        <mxCell id="hqmZHZQP9ogtLiP07Q59-21" value="" style="shape=flexArrow;endArrow=classic;html=1;rounded=0;" edge="1" parent="dNxyNK7c78bLwvsdeMH5-21">
          <mxGeometry width="50" height="50" relative="1" as="geometry">
            <mxPoint x="214.66000000000003" y="180" as="sourcePoint" />
            <mxPoint x="214.66000000000003" y="210" as="targetPoint" />
          </mxGeometry>
        </mxCell>
        <mxCell id="dNxyNK7c78bLwvsdeMH5-22" value="App" style="swimlane;html=1;startSize=20;horizontal=0;dashed=1;" parent="dNxyNK7c78bLwvsdeMH5-19" vertex="1">
          <mxGeometry x="20" y="290" width="430" height="80" as="geometry" />
        </mxCell>
        <mxCell id="hqmZHZQP9ogtLiP07Q59-10" value="iOS" style="rounded=0;whiteSpace=wrap;html=1;" vertex="1" parent="dNxyNK7c78bLwvsdeMH5-22">
          <mxGeometry x="40" y="20" width="170" height="40" as="geometry" />
        </mxCell>
        <mxCell id="hqmZHZQP9ogtLiP07Q59-11" value="Android" style="rounded=0;whiteSpace=wrap;html=1;" vertex="1" parent="dNxyNK7c78bLwvsdeMH5-22">
          <mxGeometry x="240" y="20" width="166.5" height="40" as="geometry" />
        </mxCell>
      </root>
    </mxGraphModel>
  </diagram>
</mxfile>
